<svg xmlns="http://www.w3.org/2000/svg" version="1.1" xmlns:xlink="http://www.w3.org/1999/xlink" xmlns:svgjs="http://svgjs.com/svgjs" width="265" height="534" preserveAspectRatio="none" viewBox="0 0 265 534"><g mask="url(&quot;#SvgjsMask1015&quot;)" fill="none"><g transform="translate(0, 0)" stroke-linecap="round"><path d="M62.5 102.21 L62.5 327.21" stroke-width="15" stroke="#dd1133"></path><path d="M62.5 349.71 L62.5 364.71" stroke-width="15" stroke="#3a7cc3"></path><path d="M62.5 387.21 L62.5 431.79" stroke-width="15" stroke="#3a7cc3"></path><path d="M82.5 164.97 L82.5 239.97" stroke-width="15" stroke="#3a7cc3"></path><path d="M82.5 262.47 L82.5 292.47" stroke-width="15" stroke="#dd1133"></path><path d="M82.5 314.97 L82.5 369.02" stroke-width="15" stroke="#3a7cc3"></path><path d="M102.5 245.43 L102.5 288.57" stroke-width="15" stroke="#3a7cc3"></path><path d="M122.5 143.53 L122.5 218.53" stroke-width="15" stroke="#3a7cc3"></path><path d="M122.5 241.03 L122.5 271.03" stroke-width="15" stroke="#3a7cc3"></path><path d="M122.5 293.53 L122.5 390.47" stroke-width="15" stroke="#dd1133"></path><path d="M142.5 219.4 L142.5 264.4" stroke-width="15" stroke="#dd1133"></path><path d="M142.5 286.9 L142.5 314.61" stroke-width="15" stroke="#3a7cc3"></path><path d="M162.5 140.44 L162.5 275.44" stroke-width="15" stroke="#dd1133"></path><path d="M162.5 297.94 L162.5 393.56" stroke-width="15" stroke="#dd1133"></path><path d="M182.5 181.06 L182.5 241.06" stroke-width="15" stroke="#dd1133"></path><path d="M182.5 263.56 L182.5 293.56" stroke-width="15" stroke="#3a7cc3"></path><path d="M182.5 316.06 L182.5 352.94" stroke-width="15" stroke="#3a7cc3"></path><path d="M202.5 123.41 L202.5 153.41" stroke-width="15" stroke="#3a7cc3"></path><path d="M202.5 175.91 L202.5 205.91" stroke-width="15" stroke="#3a7cc3"></path><path d="M202.5 228.41 L202.5 410.6" stroke-width="15" stroke="#3a7cc3"></path></g></g><defs><mask id="SvgjsMask1015"><rect width="265" height="534" fill="#ffffff"></rect></mask></defs></svg>