<svg xmlns="http://www.w3.org/2000/svg" version="1.1" xmlns:xlink="http://www.w3.org/1999/xlink" xmlns:svgjs="http://svgjs.com/svgjs" width="1440" height="560" preserveAspectRatio="none" viewBox="0 0 1440 560"><g mask="url(&quot;#SvgjsMask1014&quot;)" fill="none"><rect width="1440" height="560" x="0" y="0" fill="#0e2a47"></rect><path d="M 0,261 C 57.6,273.6 172.8,348.8 288,324 C 403.2,299.2 460.8,132 576,137 C 691.2,142 748.8,367.4 864,349 C 979.2,330.6 1036.8,22 1152,45 C 1267.2,68 1382.4,380.2 1440,464L1440 560L0 560z" fill="#184a7e"></path><path d="M 0,130 C 36,187.2 108,441 180,416 C 252,391 288,16.4 360,5 C 432,-6.4 468,321.2 540,359 C 612,396.8 648,202.6 720,194 C 792,185.4 828,306 900,316 C 972,326 1008,195.8 1080,244 C 1152,292.2 1188,603.6 1260,557 C 1332,510.4 1404,120.2 1440,11L1440 560L0 560z" fill="rgba(34, 116, 171, 1)"></path></g><defs><mask id="SvgjsMask1014"><rect width="1440" height="560" fill="#ffffff"></rect></mask></defs></svg>