<svg xmlns="http://www.w3.org/2000/svg" version="1.1" xmlns:xlink="http://www.w3.org/1999/xlink" xmlns:svgjs="http://svgjs.com/svgjs" width="112" height="49" preserveAspectRatio="none" viewBox="0 0 112 49"><g mask="url(&quot;#SvgjsMask1013&quot;)" fill="none"><path d="M50.66 13.47L50.66 13.76L53.33 13.76L53.33 13.47zM52.82 13.61 a0.51 0.51 0 1 0 1.02 0 a0.51 0.51 0 1 0 -1.02 0zM50.29 15.6L50.18 15.87L51.8 16.54L51.91 16.27zM51.35 16.4 a0.51 0.51 0 1 0 1.02 0 a0.51 0.51 0 1 0 -1.02 0zM49.14 17.43L48.94 17.63L50.44 19.13L50.64 18.93zM50.03 19.03 a0.51 0.51 0 1 0 1.02 0 a0.51 0.51 0 1 0 -1.02 0zM47.38 18.67L47.11 18.78L48.07 21.1L48.34 20.99zM47.69 21.05 a0.51 0.51 0 1 0 1.02 0 a0.51 0.51 0 1 0 -1.02 0zM45.27 19.15L44.98 19.15L44.98 21.02L45.27 21.02zM44.62 21.02 a0.51 0.51 0 1 0 1.02 0 a0.51 0.51 0 1 0 -1.02 0zM43.14 18.78L42.87 18.67L41.96 20.88L42.23 20.99zM41.58 20.94 a0.51 0.51 0 1 0 1.02 0 a0.51 0.51 0 1 0 -1.02 0zM41.31 17.63L41.11 17.43L39.98 18.55L40.19 18.76zM39.58 18.65 a0.51 0.51 0 1 0 1.02 0 a0.51 0.51 0 1 0 -1.02 0zM40.07 15.87L39.96 15.6L38.22 16.32L38.33 16.59zM37.76 16.45 a0.51 0.51 0 1 0 1.02 0 a0.51 0.51 0 1 0 -1.02 0zM39.59 13.76L39.59 13.47L38.31 13.47L38.31 13.76zM37.8 13.61 a0.51 0.51 0 1 0 1.02 0 a0.51 0.51 0 1 0 -1.02 0zM39.96 11.63L40.07 11.36L38.41 10.68L38.3 10.95zM37.85 10.81 a0.51 0.51 0 1 0 1.02 0 a0.51 0.51 0 1 0 -1.02 0zM41.11 9.8L41.31 9.6L40.02 8.3L39.81 8.51zM39.41 8.41 a0.51 0.51 0 1 0 1.02 0 a0.51 0.51 0 1 0 -1.02 0zM42.87 8.56L43.14 8.45L42.72 7.42L42.45 7.53zM42.07 7.47 a0.51 0.51 0 1 0 1.02 0 a0.51 0.51 0 1 0 -1.02 0zM44.98 8.08L45.27 8.08L45.27 5.98L44.98 5.98zM44.62 5.98 a0.51 0.51 0 1 0 1.02 0 a0.51 0.51 0 1 0 -1.02 0zM47.11 8.45L47.38 8.56L47.82 7.49L47.55 7.38zM47.17 7.44 a0.51 0.51 0 1 0 1.02 0 a0.51 0.51 0 1 0 -1.02 0zM48.94 9.6L49.14 9.8L49.64 9.3L49.44 9.1zM49.03 9.2 a0.51 0.51 0 1 0 1.02 0 a0.51 0.51 0 1 0 -1.02 0zM50.18 11.36L50.29 11.63L52.48 10.72L52.37 10.46zM51.92 10.59 a0.51 0.51 0 1 0 1.02 0 a0.51 0.51 0 1 0 -1.02 0zM39.59 13.61 a5.54 5.54 0 1 0 11.08 0 a5.54 5.54 0 1 0 -11.08 0z" fill="#488fdb"></path><path d="M50.3 15.58 A4.537280000000001 4.537280000000001 0 0 1 40.84 17.12M40.84 17.12 A11.074560000000002 11.074560000000002 0 0 0 50.3 15.58" fill="#2672c3" fill-rule="nonzero"></path><path d="M43.39 17.83 a1.11 1.11 0 1 0 2.22 0 a1.11 1.11 0 1 0 -2.22 0zM40.04 13.88 a1.11 1.11 0 1 0 2.22 0 a1.11 1.11 0 1 0 -2.22 0zM49.83 12.94 a0.39 0.39 0 1 0 0.78 0 a0.39 0.39 0 1 0 -0.78 0zM43.92 15.26 a0.33 0.33 0 1 0 0.66 0 a0.33 0.33 0 1 0 -0.66 0zM46.71 17.33 a0.78 0.78 0 1 0 1.56 0 a0.78 0.78 0 1 0 -1.56 0zM40.81 11.19 a0.44 0.44 0 1 0 0.88 0 a0.44 0.44 0 1 0 -0.88 0zM47.76 15.24 a0.22 0.22 0 1 0 0.44 0 a0.22 0.22 0 1 0 -0.44 0zM46.18 12.92 a1.05 1.05 0 1 0 2.1 0 a1.05 1.05 0 1 0 -2.1 0zM42.7 10.38 a0.94 0.94 0 1 0 1.88 0 a0.94 0.94 0 1 0 -1.88 0zM44.29 12.7 a0.39 0.39 0 1 0 0.78 0 a0.39 0.39 0 1 0 -0.78 0z" fill="#2672c3" fill-rule="nonzero"></path><path d="M70.58 39.21L70.58 39.5L71.79 39.5L71.79 39.21zM71.28 39.36 a0.51 0.51 0 1 0 1.02 0 a0.51 0.51 0 1 0 -1.02 0zM70.22 41.34L70.11 41.61L71.43 42.16L71.54 41.89zM70.97 42.02 a0.51 0.51 0 1 0 1.02 0 a0.51 0.51 0 1 0 -1.02 0zM69.06 43.17L68.86 43.38L70.63 45.15L70.84 44.94zM70.23 45.05 a0.51 0.51 0 1 0 1.02 0 a0.51 0.51 0 1 0 -1.02 0zM67.3 44.42L67.03 44.53L67.85 46.51L68.12 46.4zM67.48 46.46 a0.51 0.51 0 1 0 1.02 0 a0.51 0.51 0 1 0 -1.02 0zM65.19 44.89L64.9 44.89L64.9 46.33L65.19 46.33zM64.54 46.33 a0.51 0.51 0 1 0 1.02 0 a0.51 0.51 0 1 0 -1.02 0zM63.06 44.53L62.79 44.42L61.99 46.35L62.26 46.46zM61.62 46.4 a0.51 0.51 0 1 0 1.02 0 a0.51 0.51 0 1 0 -1.02 0zM61.24 43.38L61.03 43.17L60.03 44.17L60.23 44.38zM59.62 44.28 a0.51 0.51 0 1 0 1.02 0 a0.51 0.51 0 1 0 -1.02 0zM59.99 41.61L59.88 41.34L58.92 41.74L59.03 42.01zM58.46 41.87 a0.51 0.51 0 1 0 1.02 0 a0.51 0.51 0 1 0 -1.02 0zM59.51 39.5L59.51 39.21L57.81 39.21L57.81 39.5zM57.3 39.36 a0.51 0.51 0 1 0 1.02 0 a0.51 0.51 0 1 0 -1.02 0zM59.88 37.37L59.99 37.11L57.66 36.14L57.55 36.41zM57.09 36.28 a0.51 0.51 0 1 0 1.02 0 a0.51 0.51 0 1 0 -1.02 0zM61.03 35.55L61.24 35.34L60.46 34.57L60.26 34.78zM59.85 34.67 a0.51 0.51 0 1 0 1.02 0 a0.51 0.51 0 1 0 -1.02 0zM62.79 34.3L63.06 34.19L62.09 31.84L61.82 31.95zM61.45 31.9 a0.51 0.51 0 1 0 1.02 0 a0.51 0.51 0 1 0 -1.02 0zM64.9 33.82L65.19 33.82L65.19 31.21L64.9 31.21zM64.54 31.21 a0.51 0.51 0 1 0 1.02 0 a0.51 0.51 0 1 0 -1.02 0zM67.03 34.19L67.3 34.3L68.17 32.2L67.9 32.09zM67.52 32.15 a0.51 0.51 0 1 0 1.02 0 a0.51 0.51 0 1 0 -1.02 0zM68.86 35.34L69.06 35.55L70.94 33.67L70.74 33.46zM70.33 33.56 a0.51 0.51 0 1 0 1.02 0 a0.51 0.51 0 1 0 -1.02 0zM70.11 37.11L70.22 37.37L72.29 36.51L72.18 36.25zM71.73 36.38 a0.51 0.51 0 1 0 1.02 0 a0.51 0.51 0 1 0 -1.02 0zM59.51 39.36 a5.54 5.54 0 1 0 11.08 0 a5.54 5.54 0 1 0 -11.08 0z" fill="#488fdb"></path><path d="M63.85 33.95 A4.537280000000001 4.537280000000001 0 0 1 70.33 41.01M70.33 41.01 A11.074560000000002 11.074560000000002 0 0 0 63.85 33.95" fill="#2672c3" fill-rule="nonzero"></path><path d="M62.49 37.02 a1.11 1.11 0 1 0 2.22 0 a1.11 1.11 0 1 0 -2.22 0zM67.99 39.96 a1.11 1.11 0 1 0 2.22 0 a1.11 1.11 0 1 0 -2.22 0zM62.27 42.25 a1.11 1.11 0 1 0 2.22 0 a1.11 1.11 0 1 0 -2.22 0zM62.44 39.52 a0.39 0.39 0 1 0 0.78 0 a0.39 0.39 0 1 0 -0.78 0zM59.58 40.09 a0.33 0.33 0 1 0 0.66 0 a0.33 0.33 0 1 0 -0.66 0zM64.75 44.35 a0.5 0.5 0 1 0 1 0 a0.5 0.5 0 1 0 -1 0zM65.82 42.32 a0.89 0.89 0 1 0 1.78 0 a0.89 0.89 0 1 0 -1.78 0zM66.25 35.66 a1.11 1.11 0 1 0 2.22 0 a1.11 1.11 0 1 0 -2.22 0zM59.64 38.29 a0.33 0.33 0 1 0 0.66 0 a0.33 0.33 0 1 0 -0.66 0zM66.37 39.42 a0.28 0.28 0 1 0 0.56 0 a0.28 0.28 0 1 0 -0.56 0z" fill="#2672c3" fill-rule="nonzero"></path><path d="M13.99 41.12L13.99 41.33L14.92 41.33L14.92 41.12zM14.53 41.22 a0.39 0.39 0 1 0 0.78 0 a0.39 0.39 0 1 0 -0.78 0zM13.72 42.71L13.63 42.91L15.42 43.65L15.5 43.45zM15.07 43.55 a0.39 0.39 0 1 0 0.78 0 a0.39 0.39 0 1 0 -0.78 0zM12.85 44.08L12.7 44.24L13.64 45.18L13.79 45.02zM13.32 45.1 a0.39 0.39 0 1 0 0.78 0 a0.39 0.39 0 1 0 -0.78 0zM11.53 45.02L11.33 45.1L11.59 45.74L11.79 45.66zM11.3 45.7 a0.39 0.39 0 1 0 0.78 0 a0.39 0.39 0 1 0 -0.78 0zM9.95 45.38L9.73 45.38L9.73 46.63L9.95 46.63zM9.45 46.63 a0.39 0.39 0 1 0 0.78 0 a0.39 0.39 0 1 0 -0.78 0zM8.35 45.1L8.15 45.02L7.39 46.85L7.59 46.93zM7.1 46.89 a0.39 0.39 0 1 0 0.78 0 a0.39 0.39 0 1 0 -0.78 0zM6.98 44.24L6.83 44.08L5.63 45.28L5.78 45.43zM5.32 45.35 a0.39 0.39 0 1 0 0.78 0 a0.39 0.39 0 1 0 -0.78 0zM6.04 42.91L5.96 42.71L4.6 43.28L4.69 43.48zM4.25 43.38 a0.39 0.39 0 1 0 0.78 0 a0.39 0.39 0 1 0 -0.78 0zM5.69 41.33L5.69 41.12L5 41.12L5 41.33zM4.61 41.22 a0.39 0.39 0 1 0 0.78 0 a0.39 0.39 0 1 0 -0.78 0zM5.96 39.74L6.04 39.54L4.22 38.78L4.14 38.98zM3.79 38.88 a0.39 0.39 0 1 0 0.78 0 a0.39 0.39 0 1 0 -0.78 0zM6.83 38.37L6.98 38.21L5.9 37.14L5.75 37.29zM5.44 37.21 a0.39 0.39 0 1 0 0.78 0 a0.39 0.39 0 1 0 -0.78 0zM8.15 37.43L8.35 37.35L7.88 36.21L7.68 36.29zM7.39 36.25 a0.39 0.39 0 1 0 0.78 0 a0.39 0.39 0 1 0 -0.78 0zM9.73 37.07L9.95 37.07L9.95 35.15L9.73 35.15zM9.45 35.15 a0.39 0.39 0 1 0 0.78 0 a0.39 0.39 0 1 0 -0.78 0zM11.33 37.35L11.53 37.43L11.91 36.51L11.71 36.42zM11.42 36.46 a0.39 0.39 0 1 0 0.78 0 a0.39 0.39 0 1 0 -0.78 0zM12.7 38.21L12.85 38.37L13.92 37.3L13.76 37.14zM13.45 37.22 a0.39 0.39 0 1 0 0.78 0 a0.39 0.39 0 1 0 -0.78 0zM13.63 39.54L13.72 39.74L14.53 39.4L14.45 39.2zM14.1 39.3 a0.39 0.39 0 1 0 0.78 0 a0.39 0.39 0 1 0 -0.78 0zM5.69 41.22 a4.15 4.15 0 1 0 8.3 0 a4.15 4.15 0 1 0 -8.3 0z" fill="#488fdb"></path><path d="M10.23 37.09 A3.15296 3.15296 0 0 1 13.23 43.62M13.23 43.62 A8.30592 8.30592 0 0 0 10.23 37.09" fill="#2672c3" fill-rule="nonzero"></path><path d="M13.02 39.45 a0.25 0.25 0 1 0 0.5 0 a0.25 0.25 0 1 0 -0.5 0zM8.91 42.98 a0.83 0.83 0 1 0 1.66 0 a0.83 0.83 0 1 0 -1.66 0zM7.89 39.65 a0.83 0.83 0 1 0 1.66 0 a0.83 0.83 0 1 0 -1.66 0zM6.22 40.68 a0.54 0.54 0 1 0 1.08 0 a0.54 0.54 0 1 0 -1.08 0zM11.58 42.14 a0.83 0.83 0 1 0 1.66 0 a0.83 0.83 0 1 0 -1.66 0zM7.76 44.02 a0.29 0.29 0 1 0 0.58 0 a0.29 0.29 0 1 0 -0.58 0zM9.37 45.07 a0.29 0.29 0 1 0 0.58 0 a0.29 0.29 0 1 0 -0.58 0zM10.48 38.42 a0.83 0.83 0 1 0 1.66 0 a0.83 0.83 0 1 0 -1.66 0zM8.15 41.79 a0.17 0.17 0 1 0 0.34 0 a0.17 0.17 0 1 0 -0.34 0zM13.5 40.78 a0.21 0.21 0 1 0 0.42 0 a0.21 0.21 0 1 0 -0.42 0z" fill="#2672c3" fill-rule="nonzero"></path><path d="M46.26 38.74L46.26 39.03L47.17 39.03L47.17 38.74zM46.66 38.88 a0.51 0.51 0 1 0 1.02 0 a0.51 0.51 0 1 0 -1.02 0zM45.89 40.87L45.78 41.14L47.46 41.83L47.57 41.57zM47.01 41.7 a0.51 0.51 0 1 0 1.02 0 a0.51 0.51 0 1 0 -1.02 0zM44.74 42.7L44.53 42.9L46.4 44.77L46.61 44.56zM45.99 44.67 a0.51 0.51 0 1 0 1.02 0 a0.51 0.51 0 1 0 -1.02 0zM42.98 43.94L42.71 44.05L43.17 45.18L43.44 45.07zM42.8 45.13 a0.51 0.51 0 1 0 1.02 0 a0.51 0.51 0 1 0 -1.02 0zM40.87 44.42L40.58 44.42L40.58 45.97L40.87 45.97zM40.21 45.97 a0.51 0.51 0 1 0 1.02 0 a0.51 0.51 0 1 0 -1.02 0zM38.74 44.05L38.47 43.94L37.68 45.86L37.95 45.97zM37.3 45.91 a0.51 0.51 0 1 0 1.02 0 a0.51 0.51 0 1 0 -1.02 0zM36.91 42.9L36.71 42.7L36.08 43.33L36.28 43.53zM35.67 43.43 a0.51 0.51 0 1 0 1.02 0 a0.51 0.51 0 1 0 -1.02 0zM35.66 41.14L35.55 40.87L33.96 41.53L34.08 41.8zM33.51 41.66 a0.51 0.51 0 1 0 1.02 0 a0.51 0.51 0 1 0 -1.02 0zM35.19 39.03L35.19 38.74L32.54 38.74L32.54 39.03zM32.03 38.88 a0.51 0.51 0 1 0 1.02 0 a0.51 0.51 0 1 0 -1.02 0zM35.55 36.9L35.66 36.63L33.27 35.64L33.16 35.91zM32.71 35.78 a0.51 0.51 0 1 0 1.02 0 a0.51 0.51 0 1 0 -1.02 0zM36.71 35.07L36.91 34.87L34.99 32.95L34.78 33.15zM34.38 33.05 a0.51 0.51 0 1 0 1.02 0 a0.51 0.51 0 1 0 -1.02 0zM38.47 33.83L38.74 33.72L38.16 32.32L37.89 32.43zM37.52 32.38 a0.51 0.51 0 1 0 1.02 0 a0.51 0.51 0 1 0 -1.02 0zM40.58 33.35L40.87 33.35L40.87 31.54L40.58 31.54zM40.21 31.54 a0.51 0.51 0 1 0 1.02 0 a0.51 0.51 0 1 0 -1.02 0zM42.71 33.72L42.98 33.83L43.81 31.81L43.54 31.7zM43.17 31.76 a0.51 0.51 0 1 0 1.02 0 a0.51 0.51 0 1 0 -1.02 0zM44.53 34.87L44.74 35.07L45.99 33.82L45.79 33.62zM45.38 33.72 a0.51 0.51 0 1 0 1.02 0 a0.51 0.51 0 1 0 -1.02 0zM45.78 36.63L45.89 36.9L48.33 35.89L48.22 35.62zM47.77 35.76 a0.51 0.51 0 1 0 1.02 0 a0.51 0.51 0 1 0 -1.02 0zM35.18 38.88 a5.54 5.54 0 1 0 11.08 0 a5.54 5.54 0 1 0 -11.08 0z" fill="#488fdb"></path><path d="M45.54 41.61 A4.537280000000001 4.537280000000001 0 0 1 35.96 41.7M35.96 41.7 A11.074560000000002 11.074560000000002 0 0 0 45.54 41.61" fill="#2672c3" fill-rule="nonzero"></path><path d="M40.15 36.91 a1.11 1.11 0 1 0 2.22 0 a1.11 1.11 0 1 0 -2.22 0zM35.25 38.31 a0.55 0.55 0 1 0 1.1 0 a0.55 0.55 0 1 0 -1.1 0zM36.54 41.91 a1.11 1.11 0 1 0 2.22 0 a1.11 1.11 0 1 0 -2.22 0zM39.75 42.82 a0.72 0.72 0 1 0 1.44 0 a0.72 0.72 0 1 0 -1.44 0zM36.62 35.41 a0.61 0.61 0 1 0 1.22 0 a0.61 0.61 0 1 0 -1.22 0zM43.05 39.71 a1.11 1.11 0 1 0 2.22 0 a1.11 1.11 0 1 0 -2.22 0zM40.51 39.95 a0.72 0.72 0 1 0 1.44 0 a0.72 0.72 0 1 0 -1.44 0zM42.34 42.74 a0.55 0.55 0 1 0 1.1 0 a0.55 0.55 0 1 0 -1.1 0zM38.47 36.76 a0.28 0.28 0 1 0 0.56 0 a0.28 0.28 0 1 0 -0.56 0zM39.97 33.83 a0.44 0.44 0 1 0 0.88 0 a0.44 0.44 0 1 0 -0.88 0z" fill="#2672c3" fill-rule="nonzero"></path><path d="M66.71 6.73L66.71 6.87L67.25 6.87L67.25 6.73zM66.99 6.8 a0.26 0.26 0 1 0 0.52 0 a0.26 0.26 0 1 0 -0.52 0zM66.53 7.79L66.48 7.93L67.25 8.25L67.31 8.12zM67.02 8.18 a0.26 0.26 0 1 0 0.52 0 a0.26 0.26 0 1 0 -0.52 0zM65.95 8.71L65.85 8.81L66.19 9.15L66.29 9.05zM65.98 9.1 a0.26 0.26 0 1 0 0.52 0 a0.26 0.26 0 1 0 -0.52 0zM65.07 9.33L64.94 9.39L65.12 9.82L65.25 9.77zM64.93 9.79 a0.26 0.26 0 1 0 0.52 0 a0.26 0.26 0 1 0 -0.52 0zM64.02 9.57L63.87 9.57L63.87 10.59L64.02 10.59zM63.69 10.59 a0.26 0.26 0 1 0 0.52 0 a0.26 0.26 0 1 0 -0.52 0zM62.95 9.39L62.82 9.33L62.54 10L62.68 10.05zM62.35 10.02 a0.26 0.26 0 1 0 0.52 0 a0.26 0.26 0 1 0 -0.52 0zM62.04 8.81L61.94 8.71L61.34 9.3L61.45 9.4zM61.14 9.35 a0.26 0.26 0 1 0 0.52 0 a0.26 0.26 0 1 0 -0.52 0zM61.42 7.93L61.36 7.79L60.85 8.01L60.91 8.14zM60.62 8.07 a0.26 0.26 0 1 0 0.52 0 a0.26 0.26 0 1 0 -0.52 0zM61.18 6.87L61.18 6.73L60.5 6.73L60.5 6.87zM60.24 6.8 a0.26 0.26 0 1 0 0.52 0 a0.26 0.26 0 1 0 -0.52 0zM61.36 5.81L61.42 5.68L60.59 5.33L60.53 5.47zM60.3 5.4 a0.26 0.26 0 1 0 0.52 0 a0.26 0.26 0 1 0 -0.52 0zM61.94 4.9L62.04 4.79L61.39 4.14L61.29 4.25zM61.08 4.19 a0.26 0.26 0 1 0 0.52 0 a0.26 0.26 0 1 0 -0.52 0zM62.82 4.27L62.95 4.22L62.64 3.47L62.51 3.52zM62.32 3.5 a0.26 0.26 0 1 0 0.52 0 a0.26 0.26 0 1 0 -0.52 0zM63.87 4.03L64.02 4.03L64.02 3.44L63.87 3.44zM63.69 3.44 a0.26 0.26 0 1 0 0.52 0 a0.26 0.26 0 1 0 -0.52 0zM64.94 4.22L65.07 4.27L65.41 3.45L65.28 3.4zM65.09 3.42 a0.26 0.26 0 1 0 0.52 0 a0.26 0.26 0 1 0 -0.52 0zM65.85 4.79L65.95 4.9L66.68 4.17L66.58 4.07zM66.37 4.12 a0.26 0.26 0 1 0 0.52 0 a0.26 0.26 0 1 0 -0.52 0zM66.48 5.68L66.53 5.81L67.08 5.58L67.02 5.45zM66.79 5.52 a0.26 0.26 0 1 0 0.52 0 a0.26 0.26 0 1 0 -0.52 0zM61.18 6.8 a2.77 2.77 0 1 0 5.54 0 a2.77 2.77 0 1 0 -5.54 0z" fill="#488fdb"></path><path d="M66.7 6.49 A1.7686400000000004 1.7686400000000004 0 0 1 62.84 9.34M62.84 9.34 A5.537280000000001 5.537280000000001 0 0 0 66.7 6.49" fill="#2672c3" fill-rule="nonzero"></path><path d="M63.21 8.82 a0.55 0.55 0 1 0 1.1 0 a0.55 0.55 0 1 0 -1.1 0zM62.04 5.53 a0.55 0.55 0 1 0 1.1 0 a0.55 0.55 0 1 0 -1.1 0zM63.89 6.16 a0.55 0.55 0 1 0 1.1 0 a0.55 0.55 0 1 0 -1.1 0zM61.44 6.91 a0.44 0.44 0 1 0 0.88 0 a0.44 0.44 0 1 0 -0.88 0zM65.31 8.64 a0.28 0.28 0 1 0 0.56 0 a0.28 0.28 0 1 0 -0.56 0zM62.64 7.7 a0.28 0.28 0 1 0 0.56 0 a0.28 0.28 0 1 0 -0.56 0zM63.84 5.03 a0.11 0.11 0 1 0 0.22 0 a0.11 0.11 0 1 0 -0.22 0zM66.14 7.72 a0.19 0.19 0 1 0 0.38 0 a0.19 0.19 0 1 0 -0.38 0zM66.42 6.26 a0.11 0.11 0 1 0 0.22 0 a0.11 0.11 0 1 0 -0.22 0zM65.08 7.77 a0.11 0.11 0 1 0 0.22 0 a0.11 0.11 0 1 0 -0.22 0z" fill="#2672c3" fill-rule="nonzero"></path><path d="M28.9 7.89L28.9 8.04L29.97 8.04L29.97 7.89zM29.71 7.96 a0.26 0.26 0 1 0 0.52 0 a0.26 0.26 0 1 0 -0.52 0zM28.72 8.95L28.66 9.09L29.11 9.27L29.16 9.14zM28.87 9.21 a0.26 0.26 0 1 0 0.52 0 a0.26 0.26 0 1 0 -0.52 0zM28.14 9.87L28.04 9.97L28.69 10.62L28.79 10.52zM28.48 10.57 a0.26 0.26 0 1 0 0.52 0 a0.26 0.26 0 1 0 -0.52 0zM27.26 10.49L27.13 10.55L27.55 11.57L27.68 11.52zM27.36 11.55 a0.26 0.26 0 1 0 0.52 0 a0.26 0.26 0 1 0 -0.52 0zM26.21 10.73L26.06 10.73L26.06 11.79L26.21 11.79zM25.87 11.79 a0.26 0.26 0 1 0 0.52 0 a0.26 0.26 0 1 0 -0.52 0zM25.14 10.55L25.01 10.49L24.81 10.96L24.95 11.02zM24.62 10.99 a0.26 0.26 0 1 0 0.52 0 a0.26 0.26 0 1 0 -0.52 0zM24.23 9.97L24.12 9.87L23.69 10.3L23.8 10.4zM23.48 10.35 a0.26 0.26 0 1 0 0.52 0 a0.26 0.26 0 1 0 -0.52 0zM23.6 9.09L23.55 8.95L22.58 9.36L22.63 9.49zM22.35 9.42 a0.26 0.26 0 1 0 0.52 0 a0.26 0.26 0 1 0 -0.52 0zM23.37 8.04L23.37 7.89L22.7 7.89L22.7 8.04zM22.44 7.96 a0.26 0.26 0 1 0 0.52 0 a0.26 0.26 0 1 0 -0.52 0zM23.55 6.97L23.6 6.84L22.85 6.52L22.79 6.66zM22.56 6.59 a0.26 0.26 0 1 0 0.52 0 a0.26 0.26 0 1 0 -0.52 0zM24.12 6.06L24.23 5.95L23.59 5.32L23.49 5.42zM23.28 5.37 a0.26 0.26 0 1 0 0.52 0 a0.26 0.26 0 1 0 -0.52 0zM25.01 5.43L25.14 5.38L24.98 5L24.85 5.05zM24.66 5.03 a0.26 0.26 0 1 0 0.52 0 a0.26 0.26 0 1 0 -0.52 0zM26.06 5.19L26.21 5.19L26.21 4.17L26.06 4.17zM25.87 4.17 a0.26 0.26 0 1 0 0.52 0 a0.26 0.26 0 1 0 -0.52 0zM27.13 5.38L27.26 5.43L27.56 4.71L27.42 4.66zM27.23 4.68 a0.26 0.26 0 1 0 0.52 0 a0.26 0.26 0 1 0 -0.52 0zM28.04 5.95L28.14 6.06L29.04 5.16L28.94 5.06zM28.73 5.11 a0.26 0.26 0 1 0 0.52 0 a0.26 0.26 0 1 0 -0.52 0zM28.66 6.84L28.72 6.97L29.1 6.81L29.04 6.68zM28.81 6.75 a0.26 0.26 0 1 0 0.52 0 a0.26 0.26 0 1 0 -0.52 0zM23.36 7.96 a2.77 2.77 0 1 0 5.54 0 a2.77 2.77 0 1 0 -5.54 0z" fill="#488fdb"></path><path d="M25.69 10.69 A1.7686400000000004 1.7686400000000004 0 0 1 23.99 6.21M23.99 6.21 A5.537280000000001 5.537280000000001 0 0 0 25.69 10.69" fill="#2672c3" fill-rule="nonzero"></path><path d="M26.37 6.58 a0.55 0.55 0 1 0 1.1 0 a0.55 0.55 0 1 0 -1.1 0zM25.29 9.38 a0.55 0.55 0 1 0 1.1 0 a0.55 0.55 0 1 0 -1.1 0zM27.81 8.58 a0.5 0.5 0 1 0 1 0 a0.5 0.5 0 1 0 -1 0zM25.17 6.05 a0.36 0.36 0 1 0 0.72 0 a0.36 0.36 0 1 0 -0.72 0zM26.94 9.2 a0.17 0.17 0 1 0 0.34 0 a0.17 0.17 0 1 0 -0.34 0zM23.74 9.3 a0.14 0.14 0 1 0 0.28 0 a0.14 0.14 0 1 0 -0.28 0zM24.71 8.32 a0.25 0.25 0 1 0 0.5 0 a0.25 0.25 0 1 0 -0.5 0zM23.56 7.02 a0.17 0.17 0 1 0 0.34 0 a0.17 0.17 0 1 0 -0.34 0zM24.18 6.14 a0.22 0.22 0 1 0 0.44 0 a0.22 0.22 0 1 0 -0.44 0zM26.5 10.53 a0.14 0.14 0 1 0 0.28 0 a0.14 0.14 0 1 0 -0.28 0z" fill="#2672c3" fill-rule="nonzero"></path><path d="M17.26 19.69L17.26 19.95L19.23 19.95L19.23 19.69zM18.78 19.82 a0.45 0.45 0 1 0 0.9 0 a0.45 0.45 0 1 0 -0.9 0zM16.94 21.56L16.84 21.79L17.54 22.08L17.63 21.84zM17.13 21.96 a0.45 0.45 0 1 0 0.9 0 a0.45 0.45 0 1 0 -0.9 0zM15.93 23.15L15.75 23.33L16.81 24.39L16.99 24.21zM16.45 24.3 a0.45 0.45 0 1 0 0.9 0 a0.45 0.45 0 1 0 -0.9 0zM14.39 24.25L14.15 24.34L14.57 25.34L14.8 25.24zM14.23 25.29 a0.45 0.45 0 1 0 0.9 0 a0.45 0.45 0 1 0 -0.9 0zM12.54 24.66L12.29 24.66L12.29 26.65L12.54 26.65zM11.97 26.65 a0.45 0.45 0 1 0 0.9 0 a0.45 0.45 0 1 0 -0.9 0zM10.68 24.34L10.45 24.25L9.86 25.67L10.09 25.76zM9.52 25.72 a0.45 0.45 0 1 0 0.9 0 a0.45 0.45 0 1 0 -0.9 0zM9.08 23.33L8.9 23.15L7.37 24.68L7.55 24.86zM7.01 24.77 a0.45 0.45 0 1 0 0.9 0 a0.45 0.45 0 1 0 -0.9 0zM7.99 21.79L7.89 21.56L5.88 22.39L5.98 22.62zM5.48 22.51 a0.45 0.45 0 1 0 0.9 0 a0.45 0.45 0 1 0 -0.9 0zM7.57 19.95L7.57 19.69L5.6 19.69L5.6 19.95zM5.15 19.82 a0.45 0.45 0 1 0 0.9 0 a0.45 0.45 0 1 0 -0.9 0zM7.89 18.08L7.99 17.85L6.95 17.42L6.86 17.65zM6.46 17.54 a0.45 0.45 0 1 0 0.9 0 a0.45 0.45 0 1 0 -0.9 0zM8.9 16.48L9.08 16.3L7.95 15.17L7.77 15.35zM7.41 15.26 a0.45 0.45 0 1 0 0.9 0 a0.45 0.45 0 1 0 -0.9 0zM10.45 15.39L10.68 15.3L10.22 14.18L9.98 14.27zM9.65 14.23 a0.45 0.45 0 1 0 0.9 0 a0.45 0.45 0 1 0 -0.9 0zM12.29 14.98L12.54 14.98L12.54 14.14L12.29 14.14zM11.97 14.14 a0.45 0.45 0 1 0 0.9 0 a0.45 0.45 0 1 0 -0.9 0zM14.15 15.3L14.39 15.39L14.98 13.97L14.74 13.87zM14.41 13.92 a0.45 0.45 0 1 0 0.9 0 a0.45 0.45 0 1 0 -0.9 0zM15.75 16.3L15.93 16.48L16.72 15.7L16.54 15.52zM16.18 15.61 a0.45 0.45 0 1 0 0.9 0 a0.45 0.45 0 1 0 -0.9 0zM16.84 17.85L16.94 18.08L17.65 17.79L17.55 17.55zM17.15 17.67 a0.45 0.45 0 1 0 0.9 0 a0.45 0.45 0 1 0 -0.9 0zM7.57 19.82 a4.85 4.85 0 1 0 9.7 0 a4.85 4.85 0 1 0 -9.7 0z" fill="#488fdb"></path><path d="M9.47 15.97 A3.8451199999999996 3.8451199999999996 0 0 1 17.22 19.18M17.22 19.18 A9.69024 9.69024 0 0 0 9.47 15.97" fill="#2672c3" fill-rule="nonzero"></path><path d="M8.89 17.6 a0.97 0.97 0 1 0 1.94 0 a0.97 0.97 0 1 0 -1.94 0zM13.31 22.73 a0.97 0.97 0 1 0 1.94 0 a0.97 0.97 0 1 0 -1.94 0zM16.66 19.72 a0.29 0.29 0 1 0 0.58 0 a0.29 0.29 0 1 0 -0.58 0zM9.25 21.4 a0.97 0.97 0 1 0 1.94 0 a0.97 0.97 0 1 0 -1.94 0zM11.89 20.16 a0.73 0.73 0 1 0 1.46 0 a0.73 0.73 0 1 0 -1.46 0zM12.32 15.28 a0.29 0.29 0 1 0 0.58 0 a0.29 0.29 0 1 0 -0.58 0zM11.84 17.42 a0.19 0.19 0 1 0 0.38 0 a0.19 0.19 0 1 0 -0.38 0zM14.89 18.04 a0.82 0.82 0 1 0 1.64 0 a0.82 0.82 0 1 0 -1.64 0zM14.53 19.85 a0.24 0.24 0 1 0 0.48 0 a0.24 0.24 0 1 0 -0.48 0zM11.15 23.68 a0.68 0.68 0 1 0 1.36 0 a0.68 0.68 0 1 0 -1.36 0z" fill="#2672c3" fill-rule="nonzero"></path><path d="M102.62 33.68L102.62 33.97L103.71 33.97L103.71 33.68zM103.2 33.83 a0.51 0.51 0 1 0 1.02 0 a0.51 0.51 0 1 0 -1.02 0zM102.26 35.81L102.14 36.08L104.24 36.95L104.35 36.68zM103.79 36.81 a0.51 0.51 0 1 0 1.02 0 a0.51 0.51 0 1 0 -1.02 0zM101.1 37.64L100.9 37.84L102.29 39.24L102.5 39.03zM101.88 39.13 a0.51 0.51 0 1 0 1.02 0 a0.51 0.51 0 1 0 -1.02 0zM99.34 38.88L99.07 39L99.9 41.01L100.17 40.9zM99.53 40.95 a0.51 0.51 0 1 0 1.02 0 a0.51 0.51 0 1 0 -1.02 0zM97.23 39.36L96.94 39.36L96.94 40.56L97.23 40.56zM96.58 40.56 a0.51 0.51 0 1 0 1.02 0 a0.51 0.51 0 1 0 -1.02 0zM95.1 39L94.83 38.88L93.95 41.03L94.21 41.14zM93.57 41.08 a0.51 0.51 0 1 0 1.02 0 a0.51 0.51 0 1 0 -1.02 0zM93.27 37.84L93.07 37.64L91.38 39.33L91.58 39.53zM90.97 39.43 a0.51 0.51 0 1 0 1.02 0 a0.51 0.51 0 1 0 -1.02 0zM92.03 36.08L91.92 35.81L89.75 36.71L89.87 36.97zM89.3 36.84 a0.51 0.51 0 1 0 1.02 0 a0.51 0.51 0 1 0 -1.02 0zM91.55 33.97L91.55 33.68L90.78 33.68L90.78 33.97zM90.27 33.83 a0.51 0.51 0 1 0 1.02 0 a0.51 0.51 0 1 0 -1.02 0zM91.92 31.84L92.03 31.57L91.17 31.22L91.06 31.49zM90.6 31.35 a0.51 0.51 0 1 0 1.02 0 a0.51 0.51 0 1 0 -1.02 0zM93.07 30.01L93.27 29.81L91.35 27.89L91.15 28.09zM90.74 27.99 a0.51 0.51 0 1 0 1.02 0 a0.51 0.51 0 1 0 -1.02 0zM94.83 28.77L95.1 28.66L94.33 26.79L94.06 26.9zM93.68 26.85 a0.51 0.51 0 1 0 1.02 0 a0.51 0.51 0 1 0 -1.02 0zM96.94 28.29L97.23 28.29L97.23 26.03L96.94 26.03zM96.58 26.03 a0.51 0.51 0 1 0 1.02 0 a0.51 0.51 0 1 0 -1.02 0zM99.07 28.66L99.34 28.77L100.2 26.7L99.93 26.59zM99.55 26.64 a0.51 0.51 0 1 0 1.02 0 a0.51 0.51 0 1 0 -1.02 0zM100.9 29.81L101.1 30.01L102.15 28.97L101.94 28.76zM101.54 28.87 a0.51 0.51 0 1 0 1.02 0 a0.51 0.51 0 1 0 -1.02 0zM102.14 31.57L102.26 31.84L104.21 31.03L104.1 30.76zM103.65 30.9 a0.51 0.51 0 1 0 1.02 0 a0.51 0.51 0 1 0 -1.02 0zM91.55 33.83 a5.54 5.54 0 1 0 11.08 0 a5.54 5.54 0 1 0 -11.08 0z" fill="#488fdb"></path><path d="M95.07 38.98 A4.537280000000001 4.537280000000001 0 0 1 93.62 29.51M93.62 29.51 A11.074560000000002 11.074560000000002 0 0 0 95.07 38.98" fill="#2672c3" fill-rule="nonzero"></path><path d="M94.35 31.11 a1.11 1.11 0 1 0 2.22 0 a1.11 1.11 0 1 0 -2.22 0zM91.88 35.01 a1.11 1.11 0 1 0 2.22 0 a1.11 1.11 0 1 0 -2.22 0zM96.21 33.86 a1 1 0 1 0 2 0 a1 1 0 1 0 -2 0zM95.04 38.65 a0.44 0.44 0 1 0 0.88 0 a0.44 0.44 0 1 0 -0.88 0zM98.68 32.1 a0.61 0.61 0 1 0 1.22 0 a0.61 0.61 0 1 0 -1.22 0zM98.82 36.04 a1.11 1.11 0 1 0 2.22 0 a1.11 1.11 0 1 0 -2.22 0zM93.4 37.66 a0.39 0.39 0 1 0 0.78 0 a0.39 0.39 0 1 0 -0.78 0zM96.77 36.71 a0.5 0.5 0 1 0 1 0 a0.5 0.5 0 1 0 -1 0zM101.23 34.06 a0.28 0.28 0 1 0 0.56 0 a0.28 0.28 0 1 0 -0.56 0zM91.78 32.38 a0.33 0.33 0 1 0 0.66 0 a0.33 0.33 0 1 0 -0.66 0z" fill="#2672c3" fill-rule="nonzero"></path><path d="M84.56 18.51L84.56 18.76L86.5 18.76L86.5 18.51zM86.05 18.63 a0.45 0.45 0 1 0 0.9 0 a0.45 0.45 0 1 0 -0.9 0zM84.24 20.37L84.14 20.6L85.22 21.05L85.32 20.82zM84.82 20.93 a0.45 0.45 0 1 0 0.9 0 a0.45 0.45 0 1 0 -0.9 0zM83.23 21.97L83.05 22.15L84.06 23.16L84.24 22.98zM83.7 23.07 a0.45 0.45 0 1 0 0.9 0 a0.45 0.45 0 1 0 -0.9 0zM81.68 23.06L81.45 23.16L82.32 25.25L82.55 25.16zM81.98 25.2 a0.45 0.45 0 1 0 0.9 0 a0.45 0.45 0 1 0 -0.9 0zM79.84 23.48L79.59 23.48L79.59 24.16L79.84 24.16zM79.26 24.16 a0.45 0.45 0 1 0 0.9 0 a0.45 0.45 0 1 0 -0.9 0zM77.98 23.16L77.74 23.06L76.84 25.23L77.08 25.33zM76.51 25.28 a0.45 0.45 0 1 0 0.9 0 a0.45 0.45 0 1 0 -0.9 0zM76.38 22.15L76.2 21.97L74.97 23.2L75.15 23.38zM74.61 23.29 a0.45 0.45 0 1 0 0.9 0 a0.45 0.45 0 1 0 -0.9 0zM75.29 20.6L75.19 20.37L73.78 20.95L73.87 21.19zM73.37 21.07 a0.45 0.45 0 1 0 0.9 0 a0.45 0.45 0 1 0 -0.9 0zM74.87 18.76L74.87 18.51L73.91 18.51L73.91 18.76zM73.46 18.63 a0.45 0.45 0 1 0 0.9 0 a0.45 0.45 0 1 0 -0.9 0zM75.19 16.9L75.29 16.66L73.86 16.07L73.77 16.31zM73.36 16.19 a0.45 0.45 0 1 0 0.9 0 a0.45 0.45 0 1 0 -0.9 0zM76.2 15.3L76.38 15.12L74.73 13.47L74.55 13.65zM74.19 13.56 a0.45 0.45 0 1 0 0.9 0 a0.45 0.45 0 1 0 -0.9 0zM77.74 14.21L77.98 14.11L77.54 13.05L77.3 13.14zM76.97 13.1 a0.45 0.45 0 1 0 0.9 0 a0.45 0.45 0 1 0 -0.9 0zM79.59 13.79L79.84 13.79L79.84 12.12L79.59 12.12zM79.26 12.12 a0.45 0.45 0 1 0 0.9 0 a0.45 0.45 0 1 0 -0.9 0zM81.45 14.11L81.68 14.21L82.37 12.55L82.13 12.46zM81.8 12.5 a0.45 0.45 0 1 0 0.9 0 a0.45 0.45 0 1 0 -0.9 0zM83.05 15.12L83.23 15.3L84.36 14.17L84.18 13.99zM83.82 14.08 a0.45 0.45 0 1 0 0.9 0 a0.45 0.45 0 1 0 -0.9 0zM84.14 16.66L84.24 16.9L85.95 16.18L85.86 15.95zM85.46 16.07 a0.45 0.45 0 1 0 0.9 0 a0.45 0.45 0 1 0 -0.9 0zM74.86 18.63 a4.85 4.85 0 1 0 9.7 0 a4.85 4.85 0 1 0 -9.7 0z" fill="#488fdb"></path><path d="M77.34 22.86 A3.8451199999999996 3.8451199999999996 0 0 1 77.23 14.47M77.23 14.47 A9.69024 9.69024 0 0 0 77.34 22.86" fill="#2672c3" fill-rule="nonzero"></path><path d="M78.11 14.48 a0.53 0.53 0 1 0 1.06 0 a0.53 0.53 0 1 0 -1.06 0zM77.89 18.97 a0.97 0.97 0 1 0 1.94 0 a0.97 0.97 0 1 0 -1.94 0zM75.72 19.07 a0.58 0.58 0 1 0 1.16 0 a0.58 0.58 0 1 0 -1.16 0zM76.34 17.06 a0.48 0.48 0 1 0 0.96 0 a0.48 0.48 0 1 0 -0.96 0zM80.84 18.92 a0.63 0.63 0 1 0 1.26 0 a0.63 0.63 0 1 0 -1.26 0zM83.7 17.41 a0.34 0.34 0 1 0 0.68 0 a0.34 0.34 0 1 0 -0.68 0zM79.64 16.25 a0.97 0.97 0 1 0 1.94 0 a0.97 0.97 0 1 0 -1.94 0zM76.36 21.51 a0.97 0.97 0 1 0 1.94 0 a0.97 0.97 0 1 0 -1.94 0zM79.48 20.95 a0.19 0.19 0 1 0 0.38 0 a0.19 0.19 0 1 0 -0.38 0zM79.85 22.8 a0.58 0.58 0 1 0 1.16 0 a0.58 0.58 0 1 0 -1.16 0z" fill="#2672c3" fill-rule="nonzero"></path><path d="M109.29 13.7L109.29 13.88L110.47 13.88L110.47 13.7zM110.15 13.79 a0.32 0.32 0 1 0 0.64 0 a0.32 0.32 0 1 0 -0.64 0zM109.06 15.03L108.99 15.2L109.63 15.46L109.7 15.3zM109.34 15.38 a0.32 0.32 0 1 0 0.64 0 a0.32 0.32 0 1 0 -0.64 0zM108.34 16.17L108.21 16.3L109.38 17.47L109.5 17.34zM109.12 17.41 a0.32 0.32 0 1 0 0.64 0 a0.32 0.32 0 1 0 -0.64 0zM107.23 16.95L107.07 17.02L107.39 17.81L107.56 17.74zM107.16 17.77 a0.32 0.32 0 1 0 0.64 0 a0.32 0.32 0 1 0 -0.64 0zM105.92 17.25L105.74 17.25L105.74 18.1L105.92 18.1zM105.51 18.1 a0.32 0.32 0 1 0 0.64 0 a0.32 0.32 0 1 0 -0.64 0zM104.59 17.02L104.42 16.95L104.15 17.6L104.32 17.67zM103.91 17.64 a0.32 0.32 0 1 0 0.64 0 a0.32 0.32 0 1 0 -0.64 0zM103.44 16.3L103.32 16.17L102.64 16.85L102.77 16.97zM102.39 16.91 a0.32 0.32 0 1 0 0.64 0 a0.32 0.32 0 1 0 -0.64 0zM102.67 15.2L102.6 15.03L101.56 15.46L101.63 15.63zM101.28 15.54 a0.32 0.32 0 1 0 0.64 0 a0.32 0.32 0 1 0 -0.64 0zM102.37 13.88L102.37 13.7L101.08 13.7L101.08 13.88zM100.76 13.79 a0.32 0.32 0 1 0 0.64 0 a0.32 0.32 0 1 0 -0.64 0zM102.6 12.55L102.67 12.38L101.45 11.88L101.38 12.05zM101.09 11.96 a0.32 0.32 0 1 0 0.64 0 a0.32 0.32 0 1 0 -0.64 0zM103.32 11.41L103.44 11.28L102.8 10.64L102.67 10.77zM102.42 10.7 a0.32 0.32 0 1 0 0.64 0 a0.32 0.32 0 1 0 -0.64 0zM104.42 10.63L104.59 10.56L104.18 9.57L104.01 9.64zM103.77 9.61 a0.32 0.32 0 1 0 0.64 0 a0.32 0.32 0 1 0 -0.64 0zM105.74 10.33L105.92 10.33L105.92 9.58L105.74 9.58zM105.51 9.58 a0.32 0.32 0 1 0 0.64 0 a0.32 0.32 0 1 0 -0.64 0zM107.07 10.56L107.23 10.63L107.86 9.12L107.69 9.05zM107.46 9.08 a0.32 0.32 0 1 0 0.64 0 a0.32 0.32 0 1 0 -0.64 0zM108.21 11.28L108.34 11.41L109.11 10.64L108.98 10.51zM108.72 10.58 a0.32 0.32 0 1 0 0.64 0 a0.32 0.32 0 1 0 -0.64 0zM108.99 12.38L109.06 12.55L110.38 12L110.31 11.84zM110.02 11.92 a0.32 0.32 0 1 0 0.64 0 a0.32 0.32 0 1 0 -0.64 0zM102.37 13.79 a3.46 3.46 0 1 0 6.92 0 a3.46 3.46 0 1 0 -6.92 0z" fill="#488fdb"></path><path d="M106.27 10.36 A2.4608 2.4608 0 0 1 108.58 15.89M108.58 15.89 A6.9216 6.9216 0 0 0 106.27 10.36" fill="#2672c3" fill-rule="nonzero"></path><path d="M106.02 16.83 a0.35 0.35 0 1 0 0.7 0 a0.35 0.35 0 1 0 -0.7 0zM106.31 11.77 a0.69 0.69 0 1 0 1.38 0 a0.69 0.69 0 1 0 -1.38 0zM106.41 13.36 a0.24 0.24 0 1 0 0.48 0 a0.24 0.24 0 1 0 -0.48 0zM104.08 11.53 a0.69 0.69 0 1 0 1.38 0 a0.69 0.69 0 1 0 -1.38 0zM107.6 15.28 a0.62 0.62 0 1 0 1.24 0 a0.62 0.62 0 1 0 -1.24 0zM103.29 13.66 a0.69 0.69 0 1 0 1.38 0 a0.69 0.69 0 1 0 -1.38 0zM105.41 15.81 a0.21 0.21 0 1 0 0.42 0 a0.21 0.21 0 1 0 -0.42 0zM105.18 14.47 a0.38 0.38 0 1 0 0.76 0 a0.38 0.38 0 1 0 -0.76 0zM104.43 15.93 a0.14 0.14 0 1 0 0.28 0 a0.14 0.14 0 1 0 -0.28 0zM102.86 12.4 a0.17 0.17 0 1 0 0.34 0 a0.17 0.17 0 1 0 -0.34 0z" fill="#2672c3" fill-rule="nonzero"></path></g><defs><mask id="SvgjsMask1013"><rect width="112" height="49" fill="#ffffff"></rect></mask></defs></svg>